<svg xmlns="http://www.w3.org/2000/svg" xmlns:svg="http://www.w3.org/2000/svg" xmlns:xlink="http://www.w3.org/1999/xlink" id="svg1306" width="48" height="48" x="0" y="0" enable-background="new 0 0 48 48" version="1.1" viewBox="0 0 48 48" xml:space="preserve"><g opacity=".85"><path fill="#EA4335" d="M9.516,7.349h15.58c5.737-0.093,12.035,1.399,12.035,8.35c0,2.985-1.772,5.411-4.385,6.717 c3.545,1.026,5.737,4.105,5.737,7.883c0,7.93-5.831,10.355-12.968,10.355h-16L9.516,7.349L9.516,7.349z M18.193,20.457h6.717 c1.493,0,3.545-0.793,3.545-3.172c0-2.426-1.726-3.219-3.545-3.219h-6.717V20.457z M18.193,33.704h6.95 c2.752,0,4.665-0.979,4.665-3.731c0-2.939-2.053-3.919-4.665-3.919h-6.95V33.704z"/></g></svg>