<svg xmlns="http://www.w3.org/2000/svg" xmlns:svg="http://www.w3.org/2000/svg" xmlns:xlink="http://www.w3.org/1999/xlink" id="svg249" width="48" height="48" x="0" y="0" enable-background="new 0 0 48 48" version="1.1" viewBox="0 0 48 48" xml:space="preserve"><g><path fill="#4285F4" d="M39.579,25.722l-5.07,5.07l-3.561-3.561l5.07-5.07c2.266-2.266,1.476-6.741-0.98-9.199 c-2.457-2.457-6.932-3.246-9.199-0.98l-5.07,5.07l-3.561-3.561l5.07-5.07c4.077-4.077,11.623-3.163,16.042,1.258 S43.656,21.646,39.579,25.722z"/><path fill="#4285F4" d="M30.886,34.415l-5.164,5.164c-4.077,4.077-11.623,3.163-16.043-1.257S4.345,26.355,8.422,22.28l5.164-5.164 l3.561,3.561l-5.164,5.164c-2.266,2.266-1.476,6.741,0.98,9.199c2.457,2.457,6.932,3.246,9.199,0.98l5.164-5.164 C27.325,30.855,30.886,34.415,30.886,34.415z"/><g><g><g><path fill="#4285F4" d="M17.016,29.975c-0.672-0.672-0.637-1.805,0.075-2.519L27.427,17.12c0.713-0.713,1.847-0.748,2.52-0.077 l1.011,1.011c0.672,0.672,0.637,1.805-0.075,2.519L20.547,30.91c-0.713,0.713-1.847,0.748-2.52,0.077 C18.028,30.987,17.016,29.975,17.016,29.975z"/></g></g></g></g></svg>