<svg xmlns="http://www.w3.org/2000/svg" xmlns:xlink="http://www.w3.org/1999/xlink" id="Layer_1" width="24" height="24" x="0" y="0" enable-background="new 0 0 24 24" version="1.1" viewBox="0 0 24 24" xml:space="preserve"><g opacity=".9"><path fill="#7F7F7F" d="M0.979,9.471c0-1.65,1.35-3,3-3h16.042c1.65,0,3,1.35,3,3v5.058c0,1.65-1.35,3-3,3H3.979 c-1.65,0-3-1.35-3-3C0.979,14.529,0.979,9.471,0.979,9.471z"/></g><g><path fill="#A6CEE8" d="M4.086,10.433c0-0.55,0.45-1,1-1h13.828c0.55,0,1,0.45,1,1v3.135c0,0.55-0.45,1-1,1H5.086 c-0.55,0-1-0.45-1-1V10.433z"/></g></svg>